<?xml version="1.0" encoding="UTF-8"?>
<svg xmlns="http://www.w3.org/2000/svg" viewBox="0 0 128 128" role="img" aria-label="SwitchCookie logo B">
  <defs>
    <linearGradient id="g2" x1="0" y1="0" x2="1" y2="1">
      <stop offset="0" stop-color="#6366F1"/>
      <stop offset="1" stop-color="#EC4899"/>
    </linearGradient>
    <linearGradient id="g2b" x1="0" y1="0" x2="1" y2="1">
      <stop offset="0" stop-color="#38BDF8"/>
      <stop offset="1" stop-color="#8B5CF6"/>
    </linearGradient>
  </defs>

  <!-- squircle 背板 -->
  <rect x="10" y="10" width="108" height="108" rx="28" fill="url(#g2)"/>
  <rect x="10" y="10" width="108" height="108" rx="28" fill="none" stroke="#ffffff" stroke-opacity="0.14" stroke-width="1.2"/>

  <!-- 上层 Cookie -->
  <g transform="translate(24 22)">
    <circle cx="30" cy="30" r="26" fill="#FDE68A"/>
    <circle cx="30" cy="30" r="26" fill="none" stroke="#B45309" stroke-opacity="0.35" stroke-width="1.2"/>
    <circle cx="22" cy="24" r="3.2" fill="#7C2D12"/>
    <circle cx="38" cy="20" r="2.4" fill="#7C2D12"/>
    <circle cx="18" cy="38" r="2.6" fill="#7C2D12"/>
    <circle cx="38" cy="40" r="3.0" fill="#7C2D12"/>
    <circle cx="30" cy="30" r="1.8" fill="#7C2D12"/>
  </g>

  <!-- 下层 Cookie -->
  <g transform="translate(60 60)">
    <circle cx="24" cy="24" r="22" fill="#FCA5A5"/>
    <circle cx="24" cy="24" r="22" fill="none" stroke="#7F1D1D" stroke-opacity="0.35" stroke-width="1.1"/>
    <circle cx="16" cy="18" r="2.4" fill="#7F1D1D"/>
    <circle cx="30" cy="16" r="2.0" fill="#7F1D1D"/>
    <circle cx="14" cy="30" r="2.2" fill="#7F1D1D"/>
    <circle cx="32" cy="32" r="2.6" fill="#7F1D1D"/>
  </g>

  <!-- 中央切换箭头徽章 -->
  <g transform="translate(64 64)">
    <circle r="16" fill="#ffffff"/>
    <circle r="16" fill="none" stroke="url(#g2b)" stroke-width="2"/>
    <g stroke="#4F46E5" stroke-width="2.6" fill="none" stroke-linecap="round" stroke-linejoin="round">
      <path d="M -7 -3 h 12 M 5 -3 l -3 -3 M 5 -3 l -3 3"/>
      <path d="M 7 3 h -12 M -5 3 l 3 -3 M -5 3 l 3 3"/>
    </g>
  </g>
</svg>
